<svg width="124" height="32" viewBox="0 0 124 32" fill="none" xmlns="http://www.w3.org/2000/svg">
<path d="M16.0245 24.2963C11.687 24.2963 8.19295 20.5037 8.19295 15.8815C8.19295 11.2593 11.687 7.46667 16.0245 7.46667C18.0727 7.46667 20.0004 8.41481 21.4463 9.83704L26.9886 4.5037C23.9764 1.77778 20.1209 0 15.7835 0C7.10859 0 0 7.11111 0 16C0 24.7704 7.10859 32 15.7835 32C20.1209 32 24.0969 30.2222 26.8681 27.3778L21.3258 22.0444C20.0004 23.4667 18.0727 24.2963 16.0245 24.2963ZM38.796 0.711111L23.4945 15.4074L23.0126 15.8815L38.796 31.1704L44.2179 25.9556L33.4947 16L44.2179 5.92593L38.796 0.711111ZM81.0862 1.06667H70.7245V30.8148H81.2066C90.7249 30.8148 97.5925 25.1259 97.5925 16C97.5925 6.75556 90.7249 1.06667 81.0862 1.06667ZM81.0862 24.1778H78.556V7.82222H81.0862C86.6284 7.82222 89.5201 11.3778 89.5201 16C89.5201 20.3852 86.3875 24.1778 81.0862 24.1778ZM123.617 7.82222V1.06667H101.207V30.8148H123.617V24.1778H109.039V19.0815H123.256V12.4444H109.039V7.82222H123.617ZM51.5674 0.711111L46.1456 5.92593L56.8687 16L46.1456 25.9556L51.5674 31.1704L67.3509 15.8815L66.869 15.4074L51.5674 0.711111Z" fill="black"/>
</svg>
