<svg width="1440" height="1440" viewBox="0 0 1440 1440" fill="none" xmlns="http://www.w3.org/2000/svg">
<g clip-path="url(#clip0_1_4)">
<rect x="180" width="180" height="180" fill="white"/>
<rect x="180" y="360" width="180" height="180" fill="white"/>
<rect x="180" y="720" width="180" height="180" fill="white"/>
<rect x="180" y="1080" width="180" height="180" fill="white"/>
<rect y="180" width="180" height="180" fill="white"/>
<rect y="540" width="180" height="180" fill="white"/>
<rect y="900" width="180" height="180" fill="white"/>
<rect y="1260" width="180" height="180" fill="white"/>
<rect x="900" width="180" height="180" fill="white"/>
<rect x="900" y="360" width="180" height="180" fill="white"/>
<rect x="900" y="720" width="180" height="180" fill="white"/>
<rect x="900" y="1080" width="180" height="180" fill="white"/>
<rect x="720" y="180" width="180" height="180" fill="white"/>
<rect x="720" y="540" width="180" height="180" fill="white"/>
<rect x="720" y="900" width="180" height="180" fill="white"/>
<rect x="720" y="1260" width="180" height="180" fill="white"/>
<rect x="540" width="180" height="180" fill="white"/>
<rect x="540" y="360" width="180" height="180" fill="white"/>
<rect x="540" y="720" width="180" height="180" fill="white"/>
<rect x="540" y="1080" width="180" height="180" fill="white"/>
<rect x="360" y="180" width="180" height="180" fill="white"/>
<rect x="360" y="540" width="180" height="180" fill="white"/>
<rect x="360" y="900" width="180" height="180" fill="white"/>
<rect x="360" y="1260" width="180" height="180" fill="white"/>
<rect x="1260" width="180" height="180" fill="white"/>
<rect x="1260" y="360" width="180" height="180" fill="white"/>
<rect x="1260" y="720" width="180" height="180" fill="white"/>
<rect x="1260" y="1080" width="180" height="180" fill="white"/>
<rect x="1080" y="180" width="180" height="180" fill="white"/>
<rect x="1080" y="540" width="180" height="180" fill="white"/>
<rect x="1080" y="900" width="180" height="180" fill="white"/>
<rect x="1080" y="1260" width="180" height="180" fill="white"/>
</g>
<defs>
<clipPath id="clip0_1_4">
<rect width="1440" height="1440" fill="white"/>
</clipPath>
</defs>
</svg>
